<svg width="658" height="235" viewBox="0 0 658 235" fill="none" xmlns="http://www.w3.org/2000/svg">
<path d="M130.141 0.0238342C130.141 0.0238342 42.6205 6.13381 32.9217 101.348C31.819 112.174 32.8184 123.191 36.1093 133.563C41.8124 151.538 54.4724 180.175 79.7754 194.134C79.7754 194.134 148.365 245.129 214.565 178.084C214.565 178.084 180.235 228.15 124.763 219.324C124.763 219.324 35.6322 213.659 24.0314 117.176C24.0314 117.162 20.6412 8.7924 130.141 0.0238342Z" fill="#9F9F9F"/>
<path d="M38.6217 115.784H80.547L87.612 77.589L97.2305 156.483L109.415 40.0633L126.098 177.653L135.389 112.865L149.178 114.154L154.638 88.4965L160.085 115.784H171.637L179.967 94.9048L183.822 111.904L190.23 111.588L191.519 115.784H236.022" stroke="url(#paint0_linear_1_3)" stroke-width="5.72174" stroke-miterlimit="10"/>
<path d="M131.571 0.0237931C131.571 0.0237931 4.24839 -4.8826 0 126.217C0 126.217 0.573497 139.468 5.84737 156.304C23.3019 212.028 90.328 245.215 146.905 230.767C170.075 224.85 194.373 209.864 214.751 177.999C214.751 177.999 175.958 232.255 113.491 217.25C113.491 217.25 49.0032 207.974 29.7058 138.945C26.5606 127.694 25.3635 113.877 26.5662 102.257C29.8922 70.1232 47.1939 6.75146 131.571 0.0237931Z" fill="#5C5C5C"/>
<mask id="mask0_1_3" style="mask-type:alpha" maskUnits="userSpaceOnUse" x="0" y="0" width="215" height="235">
<path d="M131.571 0.0237931C131.571 0.0237931 4.24839 -4.8826 0 126.217C0 126.217 0.573497 139.468 5.84737 156.304C23.3019 212.028 90.328 245.215 146.905 230.767C170.075 224.85 194.373 209.864 214.751 177.999C214.751 177.999 175.958 232.255 113.491 217.25C113.491 217.25 49.0032 207.974 29.7058 138.945C26.5606 127.694 25.3635 113.877 26.5662 102.257C29.8922 70.1232 47.1939 6.75146 131.571 0.0237931Z" fill="#5C5C5C"/>
</mask>
<g mask="url(#mask0_1_3)">
<g filter="url(#filter0_f_1_3)">
<circle cx="-5.00652" cy="82.2452" r="50.7804" fill="#D0D0D0"/>
</g>
<g filter="url(#filter1_f_1_3)">
<circle cx="118.011" cy="219.567" r="50.7804" fill="#D0D0D0"/>
</g>
</g>
<path d="M274 73.4176L300.268 139.352C300.76 140.547 301.182 141.356 301.534 141.778C301.956 142.2 302.624 142.587 303.538 142.939L309.657 144.943V146.947H279.169V144.943L286.237 142.939C287.151 142.657 287.644 142.2 287.714 141.567C287.855 140.934 287.714 140.161 287.292 139.246L280.329 121.101H256.804L249.42 139.246C248.646 141.286 248.998 142.517 250.474 142.939L257.543 144.943V146.947H234.861V144.943L241.402 142.833C242.246 142.552 242.844 142.2 243.195 141.778C243.617 141.356 244.074 140.547 244.567 139.352L271.784 73.4176H274ZM268.936 91.4572L258.492 116.987H278.747L268.936 91.4572ZM328.468 70.7803V141.673C328.468 142.728 328.89 143.396 329.734 143.677L334.903 145.365V146.947H311.378V145.365L316.547 143.677C317.391 143.396 317.813 142.728 317.813 141.673V79.8528C317.813 78.4462 317.426 77.6726 316.653 77.5319L311.378 76.5825V75.0001L328.468 70.7803Z" fill="#575757"/>
<path d="M370.086 114.666V121.312H342.869V114.666H370.086Z" fill="#D10A0E"/>
<path d="M406.916 73.4176V75.422L400.165 77.5319C399.321 77.8132 398.899 78.5165 398.899 79.6418V140.723C398.899 141.848 399.321 142.552 400.165 142.833L406.916 144.943L407.022 146.947H378.644V144.943L385.29 142.833C386.204 142.552 386.661 141.848 386.661 140.723V79.6418C386.661 78.5165 386.204 77.8132 385.29 77.5319L378.644 75.422V73.4176H406.916ZM443.945 73.4176V75.844C443.312 75.9847 442.363 76.1957 441.097 76.477C439.901 76.7583 439.092 76.9693 438.67 77.1099C438.248 77.1803 437.615 77.3561 436.771 77.6374C435.927 77.8484 435.33 78.0594 434.978 78.2704C434.626 78.411 434.134 78.6572 433.501 79.0088C432.938 79.3605 432.446 79.7473 432.024 80.1693C431.602 80.5209 431.145 80.9781 430.653 81.5407L411.98 105.593L437.721 138.613C440.042 141.426 442.468 143.255 445 144.099L448.059 145.259V146.947H427.488C426.573 143.923 424.217 140.09 420.42 135.448L401.958 112.029V110.13L424.85 80.8023C426.327 78.7627 426.292 77.5319 424.745 77.1099L419.681 75.5275V73.4176H443.945ZM469.444 95.3605C475.563 95.3605 480.205 96.9781 483.369 100.213C486.534 103.378 488.117 108.125 488.117 114.455V140.196C488.117 141.602 488.539 142.446 489.383 142.728L494.552 144.204V145.787L477.567 147.897V139.985C476.301 142.306 474.156 144.204 471.132 145.681C468.108 147.158 464.943 147.897 461.638 147.897C457.488 147.897 454.147 146.736 451.616 144.415C449.084 142.095 447.818 139.07 447.818 135.343C447.818 131.264 449.4 127.958 452.565 125.426C455.8 122.895 460.618 120.82 467.018 119.202L477.567 116.67V113.084C477.567 103.941 474.578 99.3693 468.6 99.3693C466.49 99.3693 464.978 99.9671 464.064 101.163C463.15 102.358 462.341 104.222 461.638 106.754L460.477 110.974C459.985 112.802 458.684 113.295 456.574 112.451C455.238 111.958 454.112 111.22 453.198 110.235C452.354 109.18 451.932 108.125 451.932 107.07C451.932 104.328 453.62 101.69 456.996 99.1583C460.442 96.6264 464.591 95.3605 469.444 95.3605ZM477.462 120.046L470.077 122.051C462.692 124.231 459 128.099 459 133.655C459 136.468 459.703 138.613 461.11 140.09C462.517 141.497 464.451 142.2 466.912 142.2C468.811 142.2 470.745 141.673 472.714 140.618C474.754 139.492 476.372 138.051 477.567 136.292L477.462 120.046ZM523.246 146.947H499.721V145.365L504.89 143.677C505.734 143.396 506.156 142.728 506.156 141.673V104.75C506.156 103.273 505.769 102.464 504.996 102.323L499.721 101.374V99.7913L516.811 95.5715V111.079C517.866 106.719 519.589 103.026 521.98 100.002C524.372 96.9078 527.255 95.3605 530.631 95.3605C533.093 95.3605 535.027 96.099 536.433 97.5759C537.91 98.9825 538.578 100.67 538.438 102.64C538.367 104.609 537.594 106.332 536.117 107.809C535.484 108.442 534.991 108.758 534.64 108.758C534.288 108.758 533.761 108.442 533.057 107.809C530.736 105.558 528.556 104.433 526.517 104.433C523.633 104.433 521.277 106.086 519.449 109.391C517.69 112.697 516.811 116.635 516.811 121.207V141.673C516.811 142.657 517.233 143.325 518.077 143.677L523.246 145.365V146.947ZM549.2 75.2111C550.536 73.8748 552.189 73.2066 554.158 73.2066C556.127 73.2066 557.745 73.8748 559.011 75.2111C560.347 76.5473 561.015 78.1649 561.015 80.0638C561.015 81.9627 560.347 83.5803 559.011 84.9166C557.674 86.2528 556.057 86.9209 554.158 86.9209C552.259 86.9209 550.641 86.2528 549.305 84.9166C547.969 83.5803 547.301 81.9627 547.301 80.0638C547.301 78.1649 547.934 76.5473 549.2 75.2111ZM559.538 95.677V141.673C559.538 142.657 559.96 143.325 560.804 143.677L566.079 145.365V146.947H542.554V145.365L547.617 143.677C548.461 143.396 548.883 142.728 548.883 141.673V104.644C548.883 103.237 548.461 102.464 547.617 102.323L542.554 101.374V99.7913L559.538 95.677ZM571.684 99.7913L588.458 95.5715V102.956C590.286 100.917 592.642 99.1583 595.526 97.6814C598.409 96.1341 601.293 95.3605 604.176 95.3605C606.849 95.3605 609.346 96.0286 611.666 97.3649C614.058 98.7012 615.816 100.811 616.941 103.695C619.121 101.233 621.688 99.2286 624.642 97.6814C627.666 96.1341 630.62 95.3605 633.504 95.3605C637.231 95.3605 640.466 96.5913 643.209 99.0528C646.023 101.444 647.429 105.066 647.429 109.919V141.673C647.429 142.728 647.816 143.396 648.59 143.677L653.864 145.365V146.947H630.972V145.365L635.508 143.677C636.352 143.396 636.774 142.728 636.774 141.673V113.084C636.774 108.864 636.071 105.91 634.664 104.222C633.328 102.534 631.324 101.69 628.651 101.69C626.612 101.69 624.572 102.182 622.532 103.167C620.563 104.081 618.946 105.312 617.68 106.859C617.961 107.985 618.102 109.321 618.102 110.868V141.673C618.102 142.728 618.488 143.396 619.262 143.677L624.009 145.365V146.947H601.539L601.433 145.365L606.181 143.677C607.025 143.325 607.447 142.657 607.447 141.673V113.084C607.447 108.864 606.743 105.91 605.337 104.222C604.001 102.534 602.031 101.69 599.429 101.69C595.139 101.69 591.587 103.413 588.774 106.859V141.673C588.774 142.657 589.196 143.325 590.04 143.677L594.787 145.365V146.947H571.684V145.365L576.853 143.677C577.697 143.396 578.119 142.728 578.119 141.673V104.75C578.119 103.273 577.732 102.464 576.959 102.323L571.684 101.374V99.7913Z" fill="url(#paint1_linear_1_3)"/>
<path d="M306.802 159.159H310.335L316.478 174.158H316.704L322.846 159.159H326.379V178.454H323.61V164.492H323.431L317.74 178.425H315.441L309.751 164.482H309.572V178.454H306.802V159.159ZM341.289 178.746C339.863 178.746 338.635 178.441 337.605 177.832C336.581 177.216 335.79 176.353 335.231 175.241C334.678 174.123 334.402 172.813 334.402 171.312C334.402 169.83 334.678 168.524 335.231 167.393C335.79 166.263 336.569 165.38 337.568 164.746C338.572 164.112 339.747 163.794 341.091 163.794C341.908 163.794 342.699 163.929 343.465 164.199C344.231 164.47 344.919 164.893 345.528 165.471C346.138 166.049 346.618 166.8 346.97 167.723C347.322 168.64 347.497 169.755 347.497 171.067V172.066H335.994V169.956H344.737C344.737 169.215 344.586 168.558 344.285 167.987C343.983 167.409 343.559 166.954 343.013 166.621C342.473 166.288 341.838 166.121 341.11 166.121C340.319 166.121 339.628 166.316 339.037 166.705C338.453 167.089 338.001 167.591 337.681 168.213C337.367 168.828 337.21 169.497 337.21 170.22V171.868C337.21 172.835 337.379 173.658 337.718 174.337C338.064 175.015 338.544 175.533 339.16 175.891C339.775 176.243 340.494 176.419 341.317 176.419C341.851 176.419 342.338 176.343 342.777 176.192C343.217 176.035 343.597 175.803 343.917 175.495C344.238 175.188 344.483 174.808 344.652 174.355L347.318 174.836C347.105 175.621 346.722 176.309 346.169 176.899C345.623 177.483 344.935 177.939 344.106 178.265C343.283 178.585 342.344 178.746 341.289 178.746ZM360.706 178.736C359.538 178.736 358.496 178.438 357.579 177.841C356.668 177.238 355.952 176.381 355.431 175.269C354.916 174.151 354.658 172.81 354.658 171.246C354.658 169.683 354.919 168.345 355.44 167.233C355.968 166.121 356.69 165.27 357.607 164.68C358.524 164.09 359.563 163.794 360.725 163.794C361.623 163.794 362.346 163.945 362.892 164.247C363.445 164.542 363.872 164.887 364.173 165.283C364.481 165.679 364.72 166.027 364.889 166.329H365.059V159.159H367.876V178.454H365.125V176.202H364.889C364.72 176.51 364.475 176.861 364.155 177.257C363.84 177.653 363.407 177.998 362.854 178.293C362.302 178.589 361.586 178.736 360.706 178.736ZM361.328 176.334C362.138 176.334 362.823 176.12 363.382 175.693C363.947 175.26 364.374 174.66 364.663 173.894C364.958 173.127 365.106 172.236 365.106 171.218C365.106 170.213 364.962 169.334 364.673 168.58C364.384 167.827 363.96 167.239 363.401 166.819C362.842 166.398 362.151 166.187 361.328 166.187C360.48 166.187 359.774 166.407 359.208 166.847C358.643 167.286 358.216 167.886 357.927 168.646C357.645 169.406 357.503 170.263 357.503 171.218C357.503 172.185 357.648 173.055 357.937 173.828C358.226 174.6 358.653 175.213 359.218 175.665C359.789 176.111 360.493 176.334 361.328 176.334ZM376.563 178.454V163.983H379.38V178.454H376.563ZM377.985 161.75C377.495 161.75 377.075 161.587 376.723 161.26C376.377 160.927 376.205 160.532 376.205 160.073C376.205 159.608 376.377 159.213 376.723 158.886C377.075 158.553 377.495 158.387 377.985 158.387C378.475 158.387 378.893 158.553 379.238 158.886C379.59 159.213 379.766 159.608 379.766 160.073C379.766 160.532 379.59 160.927 379.238 161.26C378.893 161.587 378.475 161.75 377.985 161.75ZM393.931 178.746C392.531 178.746 391.325 178.428 390.314 177.794C389.309 177.153 388.536 176.271 387.996 175.147C387.456 174.022 387.186 172.735 387.186 171.284C387.186 169.814 387.462 168.517 388.015 167.393C388.568 166.263 389.346 165.38 390.351 164.746C391.356 164.112 392.54 163.794 393.903 163.794C395.002 163.794 395.982 163.998 396.842 164.407C397.703 164.809 398.397 165.374 398.924 166.103C399.458 166.831 399.775 167.682 399.876 168.656H397.134C396.984 167.977 396.638 167.393 396.098 166.903C395.564 166.413 394.848 166.168 393.95 166.168C393.165 166.168 392.477 166.376 391.887 166.79C391.303 167.198 390.847 167.783 390.521 168.543C390.194 169.296 390.031 170.188 390.031 171.218C390.031 172.273 390.191 173.184 390.511 173.95C390.832 174.716 391.284 175.31 391.868 175.731C392.458 176.152 393.152 176.362 393.95 176.362C394.484 176.362 394.968 176.265 395.401 176.07C395.841 175.869 396.208 175.583 396.503 175.213C396.805 174.842 397.015 174.396 397.134 173.875H399.876C399.775 174.811 399.471 175.646 398.962 176.381C398.453 177.116 397.772 177.694 396.918 178.114C396.07 178.535 395.074 178.746 393.931 178.746ZM411.766 178.774C410.849 178.774 410.02 178.604 409.279 178.265C408.538 177.92 407.95 177.42 407.517 176.767C407.09 176.114 406.876 175.313 406.876 174.365C406.876 173.548 407.034 172.876 407.348 172.349C407.662 171.821 408.086 171.403 408.619 171.096C409.153 170.788 409.75 170.556 410.409 170.399C411.069 170.241 411.741 170.122 412.425 170.041C413.292 169.94 413.996 169.858 414.536 169.796C415.076 169.726 415.468 169.617 415.713 169.466C415.958 169.315 416.081 169.07 416.081 168.731V168.665C416.081 167.842 415.848 167.205 415.384 166.753C414.925 166.3 414.241 166.074 413.33 166.074C412.382 166.074 411.634 166.285 411.088 166.705C410.548 167.12 410.174 167.582 409.967 168.09L407.319 167.487C407.633 166.608 408.092 165.898 408.695 165.358C409.304 164.812 410.004 164.416 410.796 164.171C411.587 163.92 412.419 163.794 413.292 163.794C413.87 163.794 414.482 163.863 415.129 164.002C415.783 164.134 416.392 164.378 416.957 164.736C417.529 165.094 417.996 165.606 418.361 166.272C418.725 166.932 418.907 167.789 418.907 168.844V178.454H416.156V176.475H416.043C415.861 176.839 415.588 177.197 415.224 177.549C414.859 177.901 414.391 178.193 413.82 178.425C413.248 178.658 412.564 178.774 411.766 178.774ZM412.378 176.513C413.157 176.513 413.823 176.359 414.376 176.051C414.935 175.743 415.359 175.341 415.647 174.845C415.943 174.343 416.09 173.806 416.09 173.234V171.369C415.99 171.469 415.795 171.564 415.506 171.652C415.224 171.733 414.9 171.805 414.536 171.868C414.172 171.925 413.817 171.978 413.471 172.028C413.126 172.072 412.837 172.11 412.604 172.141C412.058 172.21 411.559 172.327 411.107 172.49C410.661 172.653 410.303 172.889 410.033 173.197C409.769 173.498 409.637 173.9 409.637 174.402C409.637 175.1 409.894 175.627 410.409 175.985C410.924 176.337 411.581 176.513 412.378 176.513ZM430.143 159.159V178.454H427.326V159.159H430.143ZM466.538 165.434H463.598C463.485 164.806 463.275 164.253 462.967 163.776C462.659 163.298 462.282 162.893 461.836 162.56C461.39 162.227 460.891 161.976 460.338 161.807C459.792 161.637 459.211 161.552 458.596 161.552C457.484 161.552 456.488 161.832 455.609 162.391C454.736 162.95 454.045 163.769 453.536 164.85C453.034 165.93 452.783 167.249 452.783 168.806C452.783 170.377 453.034 171.702 453.536 172.782C454.045 173.862 454.739 174.679 455.619 175.232C456.498 175.784 457.487 176.061 458.586 176.061C459.195 176.061 459.773 175.979 460.32 175.816C460.872 175.646 461.372 175.398 461.818 175.071C462.264 174.745 462.64 174.346 462.948 173.875C463.262 173.398 463.479 172.851 463.598 172.236L466.538 172.245C466.381 173.193 466.076 174.066 465.624 174.864C465.178 175.655 464.603 176.34 463.9 176.918C463.202 177.489 462.405 177.932 461.507 178.246C460.609 178.56 459.629 178.717 458.567 178.717C456.897 178.717 455.408 178.322 454.102 177.53C452.795 176.733 451.765 175.593 451.012 174.11C450.264 172.628 449.891 170.86 449.891 168.806C449.891 166.746 450.267 164.978 451.021 163.502C451.775 162.02 452.805 160.883 454.111 160.092C455.418 159.294 456.903 158.895 458.567 158.895C459.591 158.895 460.546 159.043 461.431 159.338C462.323 159.627 463.124 160.054 463.834 160.619C464.543 161.178 465.131 161.863 465.595 162.673C466.06 163.477 466.374 164.397 466.538 165.434ZM480.557 178.746C479.2 178.746 478.016 178.435 477.005 177.813C475.994 177.191 475.209 176.321 474.65 175.203C474.091 174.085 473.811 172.779 473.811 171.284C473.811 169.783 474.091 168.47 474.65 167.346C475.209 166.222 475.994 165.349 477.005 164.727C478.016 164.105 479.2 163.794 480.557 163.794C481.913 163.794 483.097 164.105 484.109 164.727C485.12 165.349 485.905 166.222 486.464 167.346C487.023 168.47 487.302 169.783 487.302 171.284C487.302 172.779 487.023 174.085 486.464 175.203C485.905 176.321 485.12 177.191 484.109 177.813C483.097 178.435 481.913 178.746 480.557 178.746ZM480.566 176.381C481.446 176.381 482.174 176.149 482.752 175.684C483.33 175.219 483.757 174.6 484.033 173.828C484.316 173.055 484.457 172.204 484.457 171.275C484.457 170.351 484.316 169.504 484.033 168.731C483.757 167.952 483.33 167.327 482.752 166.856C482.174 166.385 481.446 166.15 480.566 166.15C479.681 166.15 478.946 166.385 478.362 166.856C477.784 167.327 477.354 167.952 477.071 168.731C476.795 169.504 476.656 170.351 476.656 171.275C476.656 172.204 476.795 173.055 477.071 173.828C477.354 174.6 477.784 175.219 478.362 175.684C478.946 176.149 479.681 176.381 480.566 176.381ZM495.113 178.454V163.983H497.817V166.338H497.996C498.297 165.54 498.79 164.919 499.475 164.473C500.16 164.02 500.979 163.794 501.934 163.794C502.901 163.794 503.711 164.02 504.365 164.473C505.024 164.925 505.511 165.547 505.825 166.338H505.976C506.321 165.566 506.871 164.95 507.624 164.492C508.378 164.027 509.276 163.794 510.319 163.794C511.631 163.794 512.702 164.206 513.531 165.029C514.367 165.851 514.784 167.092 514.784 168.75V178.454H511.967V169.014C511.967 168.034 511.7 167.324 511.167 166.884C510.633 166.445 509.995 166.225 509.254 166.225C508.337 166.225 507.624 166.508 507.115 167.073C506.607 167.632 506.352 168.351 506.352 169.23V178.454H503.545V168.835C503.545 168.05 503.3 167.418 502.81 166.941C502.32 166.464 501.683 166.225 500.898 166.225C500.364 166.225 499.871 166.366 499.418 166.649C498.973 166.925 498.611 167.312 498.335 167.808C498.065 168.304 497.93 168.879 497.93 169.532V178.454H495.113ZM523.226 183.88V163.983H525.977V166.329H526.213C526.376 166.027 526.612 165.679 526.919 165.283C527.227 164.887 527.654 164.542 528.201 164.247C528.747 163.945 529.469 163.794 530.367 163.794C531.536 163.794 532.578 164.09 533.495 164.68C534.412 165.27 535.131 166.121 535.653 167.233C536.18 168.345 536.444 169.683 536.444 171.246C536.444 172.81 536.183 174.151 535.662 175.269C535.141 176.381 534.425 177.238 533.514 177.841C532.603 178.438 531.564 178.736 530.396 178.736C529.516 178.736 528.797 178.589 528.238 178.293C527.686 177.998 527.252 177.653 526.938 177.257C526.624 176.861 526.382 176.51 526.213 176.202H526.043V183.88H523.226ZM525.987 171.218C525.987 172.236 526.134 173.127 526.429 173.894C526.725 174.66 527.152 175.26 527.711 175.693C528.27 176.12 528.954 176.334 529.764 176.334C530.606 176.334 531.31 176.111 531.875 175.665C532.44 175.213 532.867 174.6 533.156 173.828C533.451 173.055 533.599 172.185 533.599 171.218C533.599 170.263 533.454 169.406 533.165 168.646C532.883 167.886 532.456 167.286 531.884 166.847C531.319 166.407 530.612 166.187 529.764 166.187C528.948 166.187 528.257 166.398 527.692 166.819C527.133 167.239 526.709 167.827 526.42 168.58C526.131 169.334 525.987 170.213 525.987 171.218ZM547.083 159.159V178.454H544.267V159.159H547.083ZM561.776 178.746C560.351 178.746 559.123 178.441 558.093 177.832C557.069 177.216 556.278 176.353 555.719 175.241C555.166 174.123 554.89 172.813 554.89 171.312C554.89 169.83 555.166 168.524 555.719 167.393C556.278 166.263 557.056 165.38 558.055 164.746C559.06 164.112 560.234 163.794 561.578 163.794C562.395 163.794 563.186 163.929 563.953 164.199C564.719 164.47 565.407 164.893 566.016 165.471C566.625 166.049 567.105 166.8 567.457 167.723C567.809 168.64 567.985 169.755 567.985 171.067V172.066H556.482V169.956H565.224C565.224 169.215 565.074 168.558 564.772 167.987C564.471 167.409 564.047 166.954 563.5 166.621C562.96 166.288 562.326 166.121 561.597 166.121C560.806 166.121 560.115 166.316 559.525 166.705C558.941 167.089 558.488 167.591 558.168 168.213C557.854 168.828 557.697 169.497 557.697 170.22V171.868C557.697 172.835 557.867 173.658 558.206 174.337C558.551 175.015 559.032 175.533 559.647 175.891C560.263 176.243 560.982 176.419 561.805 176.419C562.338 176.419 562.825 176.343 563.265 176.192C563.704 176.035 564.084 175.803 564.405 175.495C564.725 175.188 564.97 174.808 565.14 174.355L567.806 174.836C567.592 175.621 567.209 176.309 566.656 176.899C566.11 177.483 565.422 177.939 564.593 178.265C563.77 178.585 562.831 178.746 561.776 178.746ZM577.663 163.983L580.857 169.617L584.079 163.983H587.16L582.647 171.218L587.197 178.454H584.117L580.857 173.046L577.607 178.454H574.517L579.02 171.218L574.573 163.983H577.663Z" fill="#5C5C5C"/>
<path d="M610.796 169.502L658 169.502" stroke="#E20B0E" stroke-width="1.43043"/>
<path d="M236.022 169.502L283.226 169.502" stroke="#E20B0E" stroke-width="1.43043"/>
<defs>
<filter id="filter0_f_1_3" x="-105.995" y="-18.7435" width="201.977" height="201.977" filterUnits="userSpaceOnUse" color-interpolation-filters="sRGB">
<feFlood flood-opacity="0" result="BackgroundImageFix"/>
<feBlend mode="normal" in="SourceGraphic" in2="BackgroundImageFix" result="shape"/>
<feGaussianBlur stdDeviation="25.1041" result="effect1_foregroundBlur_1_3"/>
</filter>
<filter id="filter1_f_1_3" x="17.0222" y="118.578" width="201.977" height="201.977" filterUnits="userSpaceOnUse" color-interpolation-filters="sRGB">
<feFlood flood-opacity="0" result="BackgroundImageFix"/>
<feBlend mode="normal" in="SourceGraphic" in2="BackgroundImageFix" result="shape"/>
<feGaussianBlur stdDeviation="25.1041" result="effect1_foregroundBlur_1_3"/>
</filter>
<linearGradient id="paint0_linear_1_3" x1="67.2304" y1="-7.87222" x2="95.8391" y2="238.878" gradientUnits="userSpaceOnUse">
<stop stop-color="#F0363B"/>
<stop offset="1" stop-color="#8A1F22"/>
</linearGradient>
<linearGradient id="paint1_linear_1_3" x1="446.522" y1="72.9474" x2="446.522" y2="146.947" gradientUnits="userSpaceOnUse">
<stop stop-color="#EB0C0F"/>
<stop offset="1" stop-color="#AC050B"/>
</linearGradient>
</defs>
</svg>
